<svg width="512" height="512" viewBox="0 0 512 512" fill="none" xmlns="http://www.w3.org/2000/svg">
  <!-- Background -->
  <rect width="512" height="512" rx="100" fill="url(#gradient)"/>
  
  <!-- Pin Icon -->
  <path d="M256 128C211.817 128 176 163.817 176 208C176 252.183 211.817 288 256 288C300.183 288 336 252.183 336 208C336 163.817 300.183 128 256 128Z" fill="white"/>
  <circle cx="256" cy="208" r="32" fill="url(#gradient)"/>
  <path d="M256 288C256 288 176 336 176 400C176 427.6 213.6 448 256 448C298.4 448 336 427.6 336 400C336 336 256 288 256 288Z" fill="white" opacity="0.8"/>
  
  <!-- Gradient Definition -->
  <defs>
    <linearGradient id="gradient" x1="0" y1="0" x2="512" y2="512" gradientUnits="userSpaceOnUse">
      <stop offset="0%" stop-color="#667eea"/>
      <stop offset="100%" stop-color="#764ba2"/>
    </linearGradient>
  </defs>
</svg>

